<svg version="1.1" xmlns="http://www.w3.org/2000/svg" style="display: block;" viewBox="0 0 2048 2048" width="2048" height="2048" preserveAspectRatio="none">
<defs>
	<linearGradient id="Gradient1" gradientUnits="userSpaceOnUse" x1="927.079" y1="669.412" x2="736.967" y2="900.764">
		<stop class="stop0" offset="0" stop-opacity="1" stop-color="rgb(2,106,194)"/>
		<stop class="stop1" offset="1" stop-opacity="1" stop-color="rgb(2,201,255)"/>
	</linearGradient>
	<linearGradient id="Gradient2" gradientUnits="userSpaceOnUse" x1="968.125" y1="539.164" x2="907.681" y2="662.267">
		<stop class="stop0" offset="0" stop-opacity="1" stop-color="rgb(1,39,101)"/>
		<stop class="stop1" offset="1" stop-opacity="1" stop-color="rgb(1,103,183)"/>
	</linearGradient>
	<linearGradient id="Gradient3" gradientUnits="userSpaceOnUse" x1="1215.94" y1="588.295" x2="1212.96" y2="362.986">
		<stop class="stop0" offset="0" stop-opacity="1" stop-color="rgb(4,149,230)"/>
		<stop class="stop1" offset="1" stop-opacity="1" stop-color="rgb(3,202,253)"/>
	</linearGradient>
	<linearGradient id="Gradient4" gradientUnits="userSpaceOnUse" x1="888.405" y1="947.722" x2="1047.8" y2="839.998">
		<stop class="stop0" offset="0" stop-opacity="1" stop-color="rgb(1,70,205)"/>
		<stop class="stop1" offset="1" stop-opacity="1" stop-color="rgb(2,107,219)"/>
	</linearGradient>
	<linearGradient id="Gradient5" gradientUnits="userSpaceOnUse" x1="1054.74" y1="894.817" x2="1380.03" y2="667.951">
		<stop class="stop0" offset="0" stop-opacity="1" stop-color="rgb(2,99,218)"/>
		<stop class="stop1" offset="1" stop-opacity="1" stop-color="rgb(6,202,248)"/>
	</linearGradient>
</defs>
<path transform="translate(0,0)" fill="url(#Gradient5)" d="M 978.262 771.989 C 983.575 757.905 1001.2 736.058 1015.57 731.504 C 1039.29 723.982 1078.4 726.856 1103.16 726.895 L 1221.23 726.904 L 1359.91 726.856 C 1382.7 726.843 1409.57 726.139 1432.1 727.011 C 1418.58 752.933 1403.74 779.451 1389.26 804.881 C 1363.34 850.407 1334.28 919.019 1275.16 926.143 L 1274.03 926.249 C 1261.56 927.305 1240.99 926.665 1228.07 926.651 L 1142.99 926.542 C 1126.32 926.523 1088.65 922.958 1078.71 937.039 C 1065.71 955.452 1055.42 978.825 1044.82 999.061 L 969.978 1146.2 C 933.125 1218.59 901.235 1303.05 803.895 1302.41 C 774.578 1302.22 743.569 1302.05 714.176 1302.58 L 835.357 1064.93 C 842.732 1049.74 850.495 1034.54 858.07 1019.43 C 866.225 1003.41 873.882 985.695 882.248 970.127 C 886.671 960.989 891.364 950.73 896.338 941.982 C 896.82 937.823 957.25 814.946 962.71 803.664 C 965.682 796.897 968.916 790.248 972.405 783.733 C 973.549 780.098 976.23 775.228 978.262 771.989 z"/>
<path transform="translate(0,0)" fill="rgb(3,43,112)" d="M 1079.43 925.843 L 1214.04 925.719 C 1231.95 925.746 1257.69 925.066 1275.16 926.143 L 1274.03 926.249 C 1261.56 927.305 1240.99 926.665 1228.07 926.651 L 1142.99 926.542 C 1126.32 926.523 1088.65 922.958 1078.71 937.039 C 1065.71 955.452 1055.42 978.825 1044.82 999.061 L 969.978 1146.2 C 933.125 1218.59 901.235 1303.05 803.895 1302.41 C 774.578 1302.22 743.569 1302.05 714.176 1302.58 L 835.357 1064.93 C 842.732 1049.74 850.495 1034.54 858.07 1019.43 C 866.225 1003.41 873.882 985.695 882.248 970.127 C 886.671 960.989 891.364 950.73 896.338 941.982 C 896.965 948.169 894.945 950.036 894.253 956.02 L 895.188 956.452 C 896.774 954.302 901.09 952.072 903.769 950.255 C 921.394 938.305 947.341 925.967 969.138 927.961 C 993.813 926.659 1022.11 925.017 1046.74 926.185 C 1056.03 926.098 1070.55 926.424 1079.43 925.843 z"/>
<path transform="translate(0,0)" fill="rgb(0,28,84)" d="M 1079.43 925.843 L 1214.04 925.719 C 1231.95 925.746 1257.69 925.066 1275.16 926.143 L 1274.03 926.249 C 1261.56 927.305 1240.99 926.665 1228.07 926.651 L 1142.99 926.542 C 1126.32 926.523 1088.65 922.958 1078.71 937.039 C 1065.71 955.452 1055.42 978.825 1044.82 999.061 C 1043.2 990.015 1051.23 977.328 1055.01 968.965 C 1059.73 958.516 1064.37 957.972 1063.41 945.528 L 1060.52 944.916 L 1060.39 943.7 L 1062.3 942.836 C 1065.09 943.249 1067.36 943.952 1069.9 942.926 C 1072.19 938.583 1073.44 936.143 1075.14 931.557 C 1068.89 927.609 1023.21 930.918 1012.8 930.134 C 1011.84 930.061 1009.64 931.24 1008.81 931.884 C 1001 937.972 990.283 929.731 981.48 930.855 C 972.522 932.85 965.564 934.968 955.875 936.377 L 954.802 933.534 L 954.395 933.71 L 954.689 936.456 L 953.545 934.112 L 953.996 936.469 L 951.74 936.043 C 961.63 923.756 1039.56 930.745 1046.74 926.185 C 1056.03 926.098 1070.55 926.424 1079.43 925.843 z"/>
<path transform="translate(0,0)" fill="rgb(5,60,163)" d="M 896.338 941.982 C 896.965 948.169 894.945 950.036 894.253 956.02 L 895.188 956.452 C 896.774 954.302 901.09 952.072 903.769 950.255 C 921.394 938.305 947.341 925.967 969.138 927.961 C 933.74 934.505 908.961 944.681 884.808 972.488 L 883.313 972.436 L 882.248 970.127 C 886.671 960.989 891.364 950.73 896.338 941.982 z"/>
<path transform="translate(0,0)" fill="rgb(5,60,163)" d="M 858.07 1019.43 C 862.487 1021.55 861.631 1020.41 864.12 1024.02 C 864.768 1033.41 857.565 1034.78 852.141 1041.35 C 845.98 1048.81 840.689 1059.08 839.771 1068.76 L 841.627 1066.73 C 842.752 1068.55 842.606 1067.78 842.732 1069.74 C 842.41 1067.61 842.476 1068.45 843.311 1066.18 C 846.454 1068.18 845.805 1067.12 847.371 1069.99 C 844.747 1072.67 841.393 1072.38 837.063 1072.96 L 835.62 1071.78 L 835.357 1064.93 C 842.732 1049.74 850.495 1034.54 858.07 1019.43 z"/>
<path transform="translate(0,0)" fill="rgb(5,60,163)" d="M 829.021 1085 L 829.438 1086.11 L 829.854 1085.58 L 830.845 1086.67 C 832.732 1091.68 830.479 1097.89 825.943 1100.76 L 823.772 1099.94 C 822.051 1101.8 823.121 1101.27 820.758 1101.91 L 820.34 1100.41 C 823.104 1095.15 825.677 1089.89 829.021 1085 z"/>
<path transform="translate(0,0)" fill="url(#Gradient4)" d="M 972.405 783.733 C 973.549 780.098 976.23 775.228 978.262 771.989 L 980.458 773.416 C 980.838 775.489 981.191 777.567 981.517 779.65 C 985.849 778.206 985.652 775.038 989.597 773.596 C 990.589 776.353 989.716 778.518 989.072 781.465 C 991.238 785.049 994.695 784.448 998.732 784.684 C 1000.91 791.478 997.711 796.018 1000.74 799.342 C 1003.23 799.598 1004.82 799.757 1007.3 800.244 C 1009.79 805.19 1006.64 807.37 1009.71 809.42 L 1013.9 808.826 C 1020.81 815.222 1010.28 842.36 1023.98 845.994 C 1027.05 846.809 1029.54 846.617 1031.48 849.546 C 1042.39 865.923 1033.07 871.473 1055.91 871.525 C 1055.84 876.622 1054.81 885.653 1058.62 889.322 L 1069.65 888.544 C 1071.6 890.353 1071.63 893.037 1072.13 895.832 C 1075.8 898.359 1077.48 897.847 1081.85 897.07 C 1082.71 896.913 1083.58 896.747 1084.44 896.573 C 1089.1 899.42 1087.48 907.062 1088.65 912.843 L 1087.44 915.656 C 1084.65 916.304 1083.71 916.087 1080.86 915.951 L 1080.51 916.663 C 1083.81 917.011 1086.6 916.899 1089.27 918.728 C 1088.09 924.125 1082.29 923.087 1079.43 925.843 C 1070.55 926.424 1056.03 926.098 1046.74 926.185 C 1022.11 925.017 993.813 926.659 969.138 927.961 C 947.341 925.967 921.394 938.305 903.769 950.255 C 901.09 952.072 896.774 954.302 895.188 956.452 L 894.253 956.02 C 894.945 950.036 896.965 948.169 896.338 941.982 C 896.82 937.823 957.25 814.946 962.71 803.664 C 965.682 796.897 968.916 790.248 972.405 783.733 z"/>
<path transform="translate(0,0)" fill="rgb(2,102,182)" d="M 962.71 803.664 C 965.682 796.897 968.916 790.248 972.405 783.733 C 972.311 790.243 970.258 798.488 973.374 804.357 C 973.606 804.796 973.483 806.018 973.449 806.558 C 970.146 805.734 970.109 805.405 967.56 803.267 L 962.71 803.664 z"/>
<path transform="translate(0,0)" fill="rgb(2,102,182)" d="M 1040.06 825.316 L 1041.85 826.867 C 1043.33 831.597 1042.53 836.074 1041.55 840.829 L 1040.04 839.695 C 1039.08 835.213 1039.76 829.992 1040.06 825.316 z"/>
<path transform="translate(0,0)" fill="url(#Gradient3)" d="M 864.231 565.92 C 873.132 544.932 884.708 524.585 893.949 504.007 C 919.604 446.878 948.407 398.149 1009.45 373.783 C 1045.55 359.375 1065.72 360.82 1103.42 360.544 L 1200.8 360.545 L 1516.7 360.438 C 1539.39 360.374 1561.06 361.07 1584.08 360.743 C 1568.76 388.25 1553.63 415.859 1538.68 443.57 C 1511.66 493.683 1487.83 548.974 1426.93 566.847 C 1409.14 572.069 1373.23 568.949 1353.55 569.139 L 1111.76 569.141 C 1085.85 572.727 1052.44 560.64 1035.53 584.243 C 1027.36 595.643 1020.85 610.29 1014.55 622.991 C 1006.42 639.441 998.133 655.813 989.69 672.105 C 988.177 675.049 980.815 690.023 979.571 691.789 C 975.519 693.139 974.202 695.349 971.496 696.034 C 970.382 692.743 972.213 691.752 970.971 688.782 C 968.496 690.301 969.487 689.963 966.664 690.506 C 961.315 686.531 964.711 687.378 957.923 686.751 C 955.565 684.145 955.705 679.089 950.74 678.37 C 941.713 677.063 940.463 669.467 934.406 664.82 C 932.106 663.055 923.909 660.317 920.886 659.288 C 920.159 657.868 919.607 656.862 918.773 655.502 C 916.296 655.567 915.06 655.565 912.598 655.349 C 903.782 644.339 900.758 649.29 888.713 643.93 C 887.337 643.318 889.24 642.115 885.85 640.472 L 882.667 643.167 L 880.658 642.93 C 879.507 641.157 879.317 640.744 878.659 638.824 C 877.145 639.076 875.693 639.438 874.22 639.869 C 874.224 639.873 870.095 635.944 870.745 636.47 C 866.047 632.669 857.005 635.33 849.512 633.409 C 847.264 630.419 848.453 629.267 847.532 624.47 L 845.997 625.228 C 846.011 627.511 845.95 628.994 845.767 631.271 L 844.368 631.735 C 840.813 627.624 839.868 626.529 837.326 621.773 C 839.344 616.92 840.583 613.656 843.3 609.102 C 847.839 598.623 858.701 575.672 864.231 565.92 z"/>
<path transform="translate(0,0)" fill="url(#Gradient2)" d="M 869.179 591.464 C 870.694 591.048 879.353 586.387 881.088 585.447 C 912.752 568.277 942.99 569.158 978.236 569.249 C 997.362 569.345 1016.49 569.307 1035.61 569.137 C 1050.27 569.023 1098.24 567.622 1111.76 569.141 C 1085.85 572.727 1052.44 560.64 1035.53 584.243 C 1027.36 595.643 1020.85 610.29 1014.55 622.991 C 1006.42 639.441 998.133 655.813 989.69 672.105 C 988.177 675.049 980.815 690.023 979.571 691.789 C 975.519 693.139 974.202 695.349 971.496 696.034 C 970.382 692.743 972.213 691.752 970.971 688.782 C 968.496 690.301 969.487 689.963 966.664 690.506 C 961.315 686.531 964.711 687.378 957.923 686.751 C 955.565 684.145 955.705 679.089 950.74 678.37 C 941.713 677.063 940.463 669.467 934.406 664.82 C 932.106 663.055 923.909 660.317 920.886 659.288 C 920.159 657.868 919.607 656.862 918.773 655.502 C 916.296 655.567 915.06 655.565 912.598 655.349 C 903.782 644.339 900.758 649.29 888.713 643.93 C 887.337 643.318 889.24 642.115 885.85 640.472 L 882.667 643.167 L 880.658 642.93 C 879.507 641.157 879.317 640.744 878.659 638.824 C 877.145 639.076 875.693 639.438 874.22 639.869 C 874.224 639.873 870.095 635.944 870.745 636.47 C 866.047 632.669 857.005 635.33 849.512 633.409 C 847.264 630.419 848.453 629.267 847.532 624.47 L 845.997 625.228 C 846.011 627.511 845.95 628.994 845.767 631.271 L 844.368 631.735 C 840.813 627.624 839.868 626.529 837.326 621.773 C 839.344 616.92 840.583 613.656 843.3 609.102 C 844.433 611.952 843.457 611.138 845.774 612.183 C 853.293 604.512 860.924 598.237 869.179 591.464 z"/>
<path transform="translate(0,0)" fill="rgb(4,138,228)" d="M 843.3 609.102 C 847.839 598.623 858.701 575.672 864.231 565.92 C 864.904 576.219 856.694 587.642 858.366 593.381 C 862.967 594.146 862.659 590.811 869.179 591.464 C 860.924 598.237 853.293 604.512 845.774 612.183 C 843.457 611.138 844.433 611.952 843.3 609.102 z"/>
<path transform="translate(0,0)" fill="url(#Gradient1)" d="M 815.351 668.934 C 818.456 659.272 832.218 632.11 837.326 621.773 C 839.868 626.529 840.813 627.624 844.368 631.735 L 845.767 631.271 C 845.95 628.994 846.011 627.511 845.997 625.228 L 847.532 624.47 C 848.453 629.267 847.264 630.419 849.512 633.409 C 857.005 635.33 866.047 632.669 870.745 636.47 C 870.095 635.944 874.224 639.873 874.22 639.869 C 875.693 639.438 877.145 639.076 878.659 638.824 C 879.317 640.744 879.507 641.157 880.658 642.93 L 882.667 643.167 L 885.85 640.472 C 889.24 642.115 887.337 643.318 888.713 643.93 C 900.758 649.29 903.782 644.339 912.598 655.349 C 915.06 655.565 916.296 655.567 918.773 655.502 C 919.607 656.862 920.159 657.868 920.886 659.288 C 923.909 660.317 932.106 663.055 934.406 664.82 C 940.463 669.467 941.713 677.063 950.74 678.37 C 955.705 679.089 955.565 684.145 957.923 686.751 C 964.711 687.378 961.315 686.531 966.664 690.506 C 969.487 689.963 968.496 690.301 970.971 688.782 C 972.213 691.752 970.382 692.743 971.496 696.034 C 974.202 695.349 975.519 693.139 979.571 691.789 C 975.285 700.321 965.169 721.898 960.599 729.017 C 940.984 770.836 918.957 812.048 899.115 853.871 C 876.636 900.555 834.516 891.812 791.214 891.922 C 764.84 891.988 736.746 893.354 710.687 891.657 C 733.56 840.777 758.659 788.916 782.313 738.305 L 804.435 691.19 C 806.592 686.611 812.812 672.624 815.351 668.934 z"/>
<path transform="translate(0,0)" fill="rgb(2,102,182)" d="M 815.351 668.934 C 818.456 659.272 832.218 632.11 837.326 621.773 C 839.868 626.529 840.813 627.624 844.368 631.735 L 845.767 631.271 C 845.95 628.994 846.011 627.511 845.997 625.228 L 847.532 624.47 C 848.453 629.267 847.264 630.419 849.512 633.409 C 857.005 635.33 866.047 632.669 870.745 636.47 C 870.095 635.944 874.224 639.873 874.22 639.869 C 875.693 639.438 877.145 639.076 878.659 638.824 C 879.317 640.744 879.507 641.157 880.658 642.93 L 882.667 643.167 L 885.85 640.472 C 889.24 642.115 887.337 643.318 888.713 643.93 C 900.758 649.29 903.782 644.339 912.598 655.349 C 915.06 655.565 916.296 655.567 918.773 655.502 C 919.607 656.862 920.159 657.868 920.886 659.288 C 923.909 660.317 932.106 663.055 934.406 664.82 C 940.463 669.467 941.713 677.063 950.74 678.37 C 955.705 679.089 955.565 684.145 957.923 686.751 C 964.711 687.378 961.315 686.531 966.664 690.506 C 969.487 689.963 968.496 690.301 970.971 688.782 C 972.213 691.752 970.382 692.743 971.496 696.034 C 974.202 695.349 975.519 693.139 979.571 691.789 C 975.285 700.321 965.169 721.898 960.599 729.017 C 960.627 721.275 961.726 718.015 963.433 710.64 C 963.859 708.801 962.138 708.042 960.6 706.584 C 961.5 704.918 962.306 703.533 963.295 701.917 C 961.282 695.076 954.969 694.301 948.747 692.702 L 950.315 690.454 C 943.072 690.319 944.447 690.448 938.955 685.02 C 932.198 678.343 918.024 673.66 911.708 667.459 C 911.638 664.681 911.912 662.907 910.412 660.604 C 908.061 660.316 898.233 659.613 897.024 659.19 C 889.577 656.58 880.398 644.822 872.416 645.149 C 864.373 645.478 865.818 645.171 859.803 639.929 C 855.821 638.45 853.182 640.487 849.107 641.078 C 845.76 641.564 841.789 636.364 838.952 633.596 L 837.367 634.711 C 838.882 636.368 839.36 637.024 840.635 638.883 L 839.848 640.885 C 834.662 642.968 839.636 640.328 834.179 639.908 C 829.391 648.835 824.134 658.055 819.259 666.986 C 818.176 668.97 818.239 668.323 815.351 668.934 z"/>
<path transform="translate(0,0)" fill="rgb(0,28,84)" d="M 1251.97 1416.27 L 1392.97 1416.19 C 1420.19 1416.19 1449.08 1415.75 1476.18 1416.59 C 1474.24 1425.3 1469.45 1446.43 1464.83 1453.09 C 1457.98 1456.1 1315.01 1454.54 1293.91 1454.46 L 1293.97 1509.5 C 1312.24 1510.14 1435.45 1508.09 1442.68 1511.36 C 1444.01 1516.6 1436.49 1539.1 1434.07 1543.59 C 1430.96 1549.38 1403.55 1547.34 1396.48 1547.32 C 1376.82 1547.21 1357.16 1547.24 1337.5 1547.4 L 1293.9 1547.52 C 1294.04 1567.62 1294.02 1587.73 1293.86 1607.83 C 1313.68 1607.18 1467.35 1606.24 1474.46 1609.03 C 1475.58 1616.58 1467.39 1636.98 1464.45 1644.85 C 1455.13 1645.58 1439.81 1645.18 1430.01 1645.19 L 1368.64 1645.21 C 1334.98 1645.22 1284.66 1646.76 1252.14 1644.71 C 1247.56 1640.66 1249.3 1622.16 1249.29 1615.07 L 1249.28 1554.5 L 1249.32 1466.51 C 1249.32 1451.86 1249.14 1436.85 1249.43 1422.2 C 1249.48 1419.43 1250.31 1418.33 1251.97 1416.27 z"/>
<path transform="translate(0,0)" fill="rgb(0,28,84)" d="M 685.842 1416.31 C 736.056 1414.81 787.565 1417.63 838.46 1416.24 C 901.554 1414.51 940.031 1451.37 925.371 1516.15 C 919.459 1542.27 896.613 1560.93 871.028 1566.58 C 850.06 1571.22 825.97 1568.58 804.451 1569.05 C 779.211 1569.29 753.791 1569.45 728.528 1568.88 C 729.163 1590.01 728.963 1618.97 728.441 1640.54 C 728.379 1643.09 726.724 1643.94 725.021 1645.03 C 714.094 1645.09 703.167 1645.08 692.24 1645 C 688.946 1644.96 686.859 1644.92 684.538 1642.52 C 683.424 1636.64 683.651 1631.06 683.732 1625.08 C 684.114 1596.71 683.094 1568.26 683.738 1539.92 C 683.791 1537.6 685.047 1531.87 687.854 1531.48 C 696.742 1530.24 706.628 1530.81 715.663 1530.82 L 804.387 1531.01 C 815.461 1531.05 844.813 1531.8 854.83 1529.89 C 861.056 1528.66 866.869 1525.87 871.728 1521.79 C 892.954 1503.76 885.968 1461.55 855.191 1456.04 C 841.916 1453.52 828.156 1454.58 814.691 1454.42 C 794.822 1454.19 774.817 1454.81 754.957 1454.52 C 731.46 1454.19 707.352 1455.37 683.926 1454.13 C 683.778 1446.08 682.19 1421.49 685.842 1416.31 z"/>
<path transform="translate(0,0)" fill="rgb(0,28,84)" d="M 280.124 1416.28 C 339.149 1415.31 441.792 1416.24 504.374 1416.93 C 505.286 1416.94 505.774 1418.58 506.331 1419.7 C 505.768 1425.72 500.235 1449.22 496.222 1453.6 C 485.158 1455.39 442.647 1454.75 429.979 1454.58 C 394.878 1454.09 357.514 1455.49 322.683 1454.3 C 323.145 1473.02 322.851 1493 322.909 1511.82 L 422.028 1511.52 C 432.498 1511.58 464.229 1510 472.077 1512.52 C 472.694 1513.6 472.966 1514.43 472.948 1515.69 C 472.842 1523.4 467.652 1543.42 461.823 1548.56 C 458.175 1551.78 338.76 1549.76 322.738 1549.6 C 323.432 1571.93 323.245 1617.55 322.252 1641.48 C 321.671 1642.27 321.091 1643.05 320.51 1643.84 C 315.925 1646.02 281.617 1646.4 278.312 1642.4 C 277.087 1632.27 277.559 1616 277.571 1605.39 L 277.636 1546.43 L 277.563 1465.11 C 277.556 1455.96 276.017 1421.84 280.124 1416.28 z"/>
<path transform="translate(0,0)" fill="rgb(0,28,84)" d="M 989.025 1416.35 C 997.747 1416.22 1023.34 1415.07 1030.55 1417.47 C 1034.45 1424.34 1032.48 1587.09 1032.61 1607.61 L 1139.94 1607.42 C 1152.14 1607.39 1187.89 1606.61 1197.07 1608.54 C 1199 1613.62 1193.56 1627.46 1191.67 1633.25 C 1190.36 1637.8 1189.19 1640.68 1187.41 1645.03 C 1173.94 1645.79 1154.88 1645.16 1141.04 1645.15 L 1055.33 1645.21 C 1033.8 1645.22 1012.04 1645.62 990.547 1644.74 C 989.238 1644.69 987.597 1642.54 987.597 1641.35 C 987.569 1568.72 987.448 1496.07 987.315 1423.44 C 987.309 1420.16 987.42 1419.2 989.025 1416.35 z"/>
<path transform="translate(0,0)" fill="rgb(0,28,84)" d="M 1531 1416.35 C 1546.72 1415.84 1569.02 1416.03 1584.64 1416.59 C 1595.98 1427.51 1621.51 1458.6 1632.63 1471.45 C 1644.9 1485.63 1673.15 1516.5 1682.97 1530.61 C 1660.86 1557.54 1635.96 1583.49 1613.56 1610.34 C 1604.15 1621.62 1593.03 1634.52 1582.71 1644.91 C 1566.6 1645.88 1543.67 1645.06 1527.12 1644.92 C 1537.34 1632.38 1550.19 1618.47 1560.96 1606.19 L 1627.97 1530.31 C 1604.4 1502.67 1556.39 1450.22 1531.06 1419.39 C 1531.04 1418.38 1531.02 1417.36 1531 1416.35 z"/>
<path transform="translate(0,0)" fill="rgb(0,28,84)" d="M 567.948 1416.34 C 581.722 1416.25 597.141 1415.84 610.75 1416.55 C 611.515 1426.47 611.052 1443.11 611.064 1453.38 L 611.084 1523.37 L 611.12 1599.84 C 611.122 1607.74 611.991 1640.46 609.637 1645.16 C 595.241 1645.15 580.404 1645.31 566.066 1644.68 C 564.406 1616.71 565.894 1569.69 565.847 1540.28 L 565.779 1464.01 C 565.779 1455.64 564.532 1421.21 567.948 1416.34 z"/>
<path transform="translate(0,0)" fill="rgb(0,28,84)" d="M 1700.44 1552.82 C 1705.85 1556.89 1723.52 1577.72 1728.85 1583.88 C 1746.3 1604.06 1764.54 1624.27 1781.58 1644.73 C 1772.75 1645.13 1762.72 1645.01 1753.79 1645.11 L 1726.48 1645.04 C 1723.36 1642.25 1720.34 1638.74 1717.6 1635.55 C 1702.69 1618.19 1687.06 1601.08 1672.76 1583.22 C 1678.99 1575.8 1693.42 1558.28 1700.44 1552.82 z"/>
<path transform="translate(0,0)" fill="rgb(1,192,253)" d="M 1731.97 1416.47 C 1748.74 1416.26 1765.51 1416.34 1782.27 1416.73 C 1758.63 1441.68 1733.55 1471.46 1710.23 1497.39 C 1707.07 1501.24 1704.67 1504.82 1700.47 1507.39 C 1695.5 1505.54 1677 1482.77 1672.58 1477.4 C 1687 1459.25 1708.36 1435.1 1725.4 1418.59 C 1726.57 1417.45 1730.25 1416.76 1731.97 1416.47 z"/>
</svg>